<svg xmlns="http://www.w3.org/2000/svg" xmlns:xlink="http://www.w3.org/1999/xlink" width="1000" zoomAndPan="magnify" viewBox="0 0 750 187.499995" height="250" preserveAspectRatio="xMidYMid meet" version="1.0"><defs><filter x="0%" y="0%" width="100%" height="100%" id="9022792a7a"><feColorMatrix values="0 0 0 0 1 0 0 0 0 1 0 0 0 0 1 0 0 0 1 0" color-interpolation-filters="sRGB"/></filter><g/><clipPath id="e23aab9ebd"><path d="M 0.996094 10.71875 L 749 10.71875 L 749 176.683594 L 0.996094 176.683594 Z M 0.996094 10.71875 " clip-rule="nonzero"/></clipPath><clipPath id="9769f9d92d"><path d="M 9.972656 10.71875 L 740.027344 10.71875 C 742.40625 10.71875 744.691406 11.664062 746.375 13.347656 C 748.058594 15.03125 749.003906 17.3125 749.003906 19.695312 L 749.003906 167.308594 C 749.003906 169.6875 748.058594 171.96875 746.375 173.652344 C 744.691406 175.335938 742.40625 176.28125 740.027344 176.28125 L 9.972656 176.28125 C 5.015625 176.28125 0.996094 172.265625 0.996094 167.308594 L 0.996094 19.695312 C 0.996094 14.738281 5.015625 10.71875 9.972656 10.71875 " clip-rule="nonzero"/></clipPath><mask id="fc2b2e2664"><g filter="url(#9022792a7a)"><rect x="-75" width="900" fill="#000000" y="-18.749999" height="224.999994" fill-opacity="0.2784"/></g></mask><clipPath id="f41619f944"><path d="M 25 18 L 168 18 L 168 172 L 25 172 Z M 25 18 " clip-rule="nonzero"/></clipPath><clipPath id="8e8d33dafa"><path d="M 159.917969 -8.503906 L 193.378906 152.621094 L 32.988281 185.925781 L -0.472656 24.804688 Z M 159.917969 -8.503906 " clip-rule="nonzero"/></clipPath><clipPath id="1fc07d2b32"><path d="M 159.917969 -8.503906 L 193.378906 152.621094 L 32.988281 185.925781 L -0.472656 24.804688 Z M 159.917969 -8.503906 " clip-rule="nonzero"/></clipPath><clipPath id="08443fb6b6"><path d="M 11 12 L 177 12 L 177 167 L 11 167 Z M 11 12 " clip-rule="nonzero"/></clipPath><clipPath id="8f7218aaff"><path d="M 159.917969 -8.503906 L 193.378906 152.621094 L 32.988281 185.925781 L -0.472656 24.804688 Z M 159.917969 -8.503906 " clip-rule="nonzero"/></clipPath><clipPath id="79ea7a758b"><path d="M 159.917969 -8.503906 L 193.378906 152.621094 L 32.988281 185.925781 L -0.472656 24.804688 Z M 159.917969 -8.503906 " clip-rule="nonzero"/></clipPath><clipPath id="66406bc3f6"><rect x="0" width="193" y="0" height="186"/></clipPath><clipPath id="109a3c275a"><path d="M 282.917969 61.21875 L 344.257812 61.21875 L 344.257812 122.554688 L 282.917969 122.554688 Z M 282.917969 61.21875 " clip-rule="nonzero"/></clipPath></defs><g clip-path="url(#e23aab9ebd)"><g clip-path="url(#9769f9d92d)"><path fill="#004aad" d="M 0.996094 10.71875 L 749.003906 10.71875 L 749.003906 176.097656 L 0.996094 176.097656 Z M 0.996094 10.71875 " fill-opacity="1" fill-rule="nonzero"/></g></g><g mask="url(#fc2b2e2664)"><g transform="matrix(1, 0, 0, 1, 433, 0)"><g clip-path="url(#66406bc3f6)"><g clip-path="url(#f41619f944)"><g clip-path="url(#8e8d33dafa)"><g clip-path="url(#1fc07d2b32)"><path fill="#0a85d6" d="M 166.953125 88.890625 L 166.65625 87.726562 C 164.953125 79.234375 160.261719 68.238281 152.589844 54.742188 C 145.867188 43.722656 139.757812 35.992188 134.261719 31.550781 C 129.003906 27.253906 125.433594 24.773438 123.550781 24.109375 C 120.734375 22.710938 117.789062 21.609375 114.710938 20.808594 C 105.296875 18.625 95.523438 18.148438 85.390625 19.382812 C 72.433594 20.621094 60.582031 23.070312 49.832031 26.734375 C 40.378906 30.769531 34.613281 34.511719 32.535156 37.960938 C 29.523438 40.542969 27.449219 47.050781 26.308594 57.488281 L 25.515625 88.367188 C 25.714844 94.703125 26.277344 99.464844 27.199219 102.664062 C 30.425781 115.3125 39.375 128.507812 54.054688 142.238281 L 74.230469 160.605469 C 78.972656 164.507812 81.878906 166.667969 82.953125 167.09375 C 88.121094 169.714844 91.316406 170.964844 92.535156 170.84375 C 95.003906 171.246094 97.125 171.320312 98.890625 171.0625 C 103.839844 170.769531 109.957031 167.492188 117.238281 161.226562 C 129.183594 149.972656 140.246094 138.167969 150.421875 125.8125 C 158.589844 116.152344 163.328125 109.53125 164.632812 105.953125 C 167.261719 100.503906 168.035156 94.816406 166.953125 88.890625 " fill-opacity="1" fill-rule="nonzero"/></g></g></g><g clip-path="url(#08443fb6b6)"><g clip-path="url(#8f7218aaff)"><g clip-path="url(#79ea7a758b)"><path fill="#23a8fe" d="M 168.902344 102.027344 C 168.921875 101.996094 174.710938 92.992188 175.59375 87.914062 C 175.664062 87.515625 175.726562 87.113281 175.78125 86.703125 C 176.957031 77.898438 174.527344 67.679688 168.550781 61.3125 C 164.34375 56.832031 157.601562 55.261719 151.398438 53.953125 C 148.523438 53.347656 145.59375 52.84375 142.65625 52.335938 C 139.710938 51.832031 136.753906 51.320312 133.832031 50.703125 C 128.628906 49.609375 123.523438 48.167969 118.769531 45.789062 C 111.773438 42.28125 106.160156 36.496094 100.625 30.800781 C 95.113281 25.125 89.683594 19.542969 82.996094 16.191406 C 81.847656 15.617188 80.664062 15.109375 79.4375 14.675781 C 69.847656 11.300781 58.613281 16.429688 49.300781 21.128906 C 33.507812 29.101562 16.464844 42.371094 13.171875 59.535156 C 13.019531 60.320312 12.894531 61.105469 12.789062 61.898438 C 11.8125 69.210938 12.664062 76.785156 13.710938 84.167969 C 15.707031 98.257812 19.320312 112.160156 23.902344 125.648438 C 26.96875 134.675781 30.441406 143.625 35.09375 151.914062 C 38.519531 158.019531 43.738281 165.058594 50.433594 165.519531 C 57.042969 165.972656 63.5 162.101562 69.257812 158.445312 C 73.203125 155.9375 76.984375 153.191406 80.785156 150.429688 C 83.972656 148.113281 87.171875 145.789062 90.472656 143.609375 C 100.039062 137.285156 110.667969 132.816406 121.234375 128.371094 C 124.957031 126.804688 128.667969 125.246094 132.335938 123.601562 C 140.632812 119.886719 148.910156 116.082031 156.671875 111.410156 C 161.09375 108.75 168.976562 101.941406 168.984375 101.929688 L 168.902344 102.027344 M 169.648438 102.503906 C 169.625 102.539062 169.597656 102.574219 169.566406 102.601562 C 169.578125 102.589844 161.628906 109.460938 157.128906 112.167969 C 149.316406 116.875 140.996094 120.695312 132.699219 124.410156 C 129.023438 126.058594 125.296875 127.625 121.578125 129.1875 C 110.996094 133.636719 100.445312 138.074219 90.960938 144.347656 C 87.679688 146.515625 84.496094 148.828125 81.304688 151.148438 C 77.511719 153.90625 73.707031 156.667969 69.734375 159.191406 C 64.023438 162.820312 57.320312 166.882812 50.371094 166.402344 C 43.144531 165.902344 37.71875 158.398438 34.320312 152.347656 C 29.628906 143.988281 26.136719 134.980469 23.0625 125.933594 C 18.464844 112.40625 14.839844 98.449219 12.832031 84.289062 C 11.789062 76.910156 10.914062 69.226562 11.910156 61.78125 C 12.015625 60.972656 12.144531 60.171875 12.300781 59.367188 C 15.675781 41.769531 33.070312 28.328125 48.898438 20.339844 C 58.132812 15.679688 69.726562 10.320312 79.734375 13.839844 C 80.996094 14.285156 82.214844 14.808594 83.394531 15.398438 C 90.238281 18.828125 95.769531 24.53125 101.261719 30.183594 C 106.816406 35.902344 112.328125 41.570312 119.167969 44.996094 C 123.824219 47.328125 128.847656 48.75 134.011719 49.835938 C 136.917969 50.449219 139.859375 50.957031 142.808594 51.464844 C 145.742188 51.96875 148.6875 52.476562 151.582031 53.085938 C 157.726562 54.382812 164.769531 55.988281 169.195312 60.707031 C 175.394531 67.308594 177.863281 77.8125 176.660156 86.820312 C 176.605469 87.238281 176.539062 87.65625 176.46875 88.066406 C 175.546875 93.359375 169.628906 102.535156 169.648438 102.503906 Z M 169.648438 102.503906 " fill-opacity="0.9608" fill-rule="nonzero"/></g></g></g></g></g></g><g fill="#ededed" fill-opacity="1"><g transform="translate(171.386713, 118.804274)"><g><path d="M 57.3125 0 L 34.757812 -55.007812 L 22.753906 -55.007812 L 0.203125 0 L 13.742188 0 L 17.296875 -8.933594 L 40.214844 -8.933594 L 43.773438 0 Z M 28.332031 -36.738281 L 28.695312 -38.4375 L 28.816406 -38.4375 L 29.179688 -36.738281 L 36.011719 -19.5625 L 21.5 -19.5625 Z M 28.332031 -36.738281 "/></g></g></g><g fill="#ededed" fill-opacity="1"><g transform="translate(228.898326, 118.804274)"><g><path d="M 32.414062 0 C 41.507812 0 50.925781 -4.648438 50.925781 -16.367188 C 50.925781 -22.351562 46.4375 -27.28125 41.183594 -29.140625 C 44.742188 -30.597656 47.855469 -35.082031 47.855469 -39.691406 C 47.855469 -49.390625 40.902344 -54.96875 30.109375 -54.96875 L 5.617188 -54.96875 L 5.617188 0 Z M 18.59375 -44.015625 L 29.503906 -44.015625 C 32.65625 -44.015625 34.960938 -41.710938 34.960938 -38.515625 C 34.960938 -35.242188 32.65625 -32.859375 29.464844 -32.859375 L 18.59375 -32.859375 Z M 18.59375 -23.402344 L 31.242188 -23.402344 C 35.082031 -23.402344 37.832031 -20.695312 37.832031 -17.378906 C 37.832031 -13.417969 35.082031 -10.953125 31.242188 -10.953125 L 18.59375 -10.953125 Z M 18.59375 -23.402344 "/></g></g></g><g fill="#ededed" fill-opacity="1"><g transform="translate(281.762128, 118.804274)"><g><path d="M 32.011719 1.253906 C 48.460938 1.253906 61.878906 -11.601562 61.878906 -27.566406 C 61.878906 -43.570312 48.460938 -56.339844 32.011719 -56.339844 C 15.480469 -56.339844 2.101562 -43.570312 2.101562 -27.566406 C 2.101562 -11.601562 15.480469 1.253906 32.011719 1.253906 Z M 32.011719 -10.46875 C 22.554688 -10.46875 14.914062 -17.621094 14.914062 -27.523438 C 14.914062 -37.464844 22.472656 -44.621094 32.011719 -44.621094 C 41.507812 -44.621094 49.105469 -37.464844 49.105469 -27.523438 C 49.105469 -17.621094 41.507812 -10.46875 32.011719 -10.46875 Z M 32.011719 -10.46875 "/></g></g></g><g fill="#ededed" fill-opacity="1"><g transform="translate(345.780677, 118.804274)"><g><path d="M 28.9375 1.253906 C 43.527344 1.253906 53.066406 -8.164062 53.066406 -21.21875 L 53.066406 -54.96875 L 40.253906 -54.96875 L 40.253906 -22.148438 C 40.253906 -15.4375 36.171875 -10.347656 28.9375 -10.347656 C 21.542969 -10.347656 17.542969 -15.480469 17.542969 -22.148438 L 17.542969 -54.96875 L 4.769531 -54.96875 L 4.769531 -21.21875 C 4.769531 -7.355469 15.277344 1.253906 28.9375 1.253906 Z M 28.9375 1.253906 "/></g></g></g><g fill="#ededed" fill-opacity="1"><g transform="translate(403.615616, 118.804274)"><g><path d="M 29.625 0 L 29.625 -43.570312 L 44.984375 -43.570312 L 44.984375 -54.96875 L 1.496094 -54.96875 L 1.496094 -43.570312 L 16.894531 -43.570312 L 16.894531 0 Z M 29.625 0 "/></g></g></g><g fill="#ededed" fill-opacity="1"><g transform="translate(450.09373, 118.804274)"><g/></g></g><g fill="#ededed" fill-opacity="1"><g transform="translate(469.978279, 118.804274)"><g><path d="M 28.9375 1.253906 C 43.527344 1.253906 53.066406 -8.164062 53.066406 -21.21875 L 53.066406 -54.96875 L 40.253906 -54.96875 L 40.253906 -22.148438 C 40.253906 -15.4375 36.171875 -10.347656 28.9375 -10.347656 C 21.542969 -10.347656 17.542969 -15.480469 17.542969 -22.148438 L 17.542969 -54.96875 L 4.769531 -54.96875 L 4.769531 -21.21875 C 4.769531 -7.355469 15.277344 1.253906 28.9375 1.253906 Z M 28.9375 1.253906 "/></g></g></g><g fill="#ededed" fill-opacity="1"><g transform="translate(527.813231, 118.804274)"><g><path d="M 25.585938 1.375 C 39.203125 1.375 48.539062 -4.609375 48.539062 -15.601562 C 48.539062 -26.3125 40.011719 -30.960938 28.980469 -33.183594 C 20.328125 -34.800781 16.691406 -36.535156 16.691406 -40.054688 C 16.691406 -42.558594 18.105469 -45.1875 24.9375 -45.1875 C 31.648438 -45.1875 33.828125 -42.113281 33.828125 -39.042969 L 46.640625 -39.042969 C 46.640625 -49.550781 39.488281 -56.339844 25.097656 -56.339844 C 10.871094 -56.339844 3.878906 -49.714844 3.878906 -40.132812 C 3.878906 -28.492188 15.277344 -24.855469 24.53125 -22.632812 C 31.648438 -21.015625 35.566406 -19.441406 35.566406 -15.640625 C 35.566406 -11.476562 32.699219 -9.375 25.542969 -9.375 C 18.996094 -9.375 15.316406 -12.449219 15.316406 -17.015625 L 2.507812 -17.015625 C 2.507812 -8.125 8.730469 1.375 25.585938 1.375 Z M 25.585938 1.375 "/></g></g></g><g clip-path="url(#109a3c275a)"><path fill="#ededed" d="M 313.589844 122.554688 C 296.675781 122.554688 282.917969 108.796875 282.917969 91.886719 C 282.917969 74.976562 296.675781 61.21875 313.589844 61.21875 C 330.5 61.21875 344.257812 74.976562 344.257812 91.886719 C 344.257812 108.796875 330.5 122.554688 313.589844 122.554688 Z M 313.589844 122.554688 " fill-opacity="1" fill-rule="nonzero"/></g><path fill="#0379c6" d="M 305.082031 100.023438 C 304.628906 100.023438 304.167969 99.878906 303.78125 99.582031 L 296.054688 93.667969 C 295.53125 93.269531 295.222656 92.648438 295.214844 91.992188 C 295.207031 91.332031 295.503906 90.707031 296.015625 90.292969 L 303.582031 84.222656 C 304.507812 83.480469 305.855469 83.628906 306.597656 84.550781 C 307.335938 85.476562 307.191406 86.824219 306.265625 87.566406 L 300.835938 91.925781 L 306.386719 96.175781 C 307.328125 96.894531 307.507812 98.242188 306.785156 99.183594 C 306.363281 99.734375 305.726562 100.023438 305.082031 100.023438 Z M 305.082031 100.023438 " fill-opacity="1" fill-rule="nonzero"/><path fill="#0379c6" d="M 322.09375 100.023438 C 321.449219 100.023438 320.8125 99.734375 320.390625 99.183594 C 319.667969 98.242188 319.847656 96.894531 320.789062 96.175781 L 326.339844 91.925781 L 320.910156 87.566406 C 319.984375 86.824219 319.839844 85.476562 320.578125 84.550781 C 321.320312 83.628906 322.671875 83.480469 323.59375 84.222656 L 331.160156 90.292969 C 331.671875 90.707031 331.96875 91.332031 331.960938 91.992188 C 331.953125 92.648438 331.644531 93.269531 331.121094 93.667969 L 323.394531 99.582031 C 323.007812 99.878906 322.546875 100.023438 322.09375 100.023438 Z M 322.09375 100.023438 " fill-opacity="1" fill-rule="nonzero"/><path fill="#0379c6" d="M 310.101562 104.128906 C 309.917969 104.128906 309.726562 104.105469 309.539062 104.050781 C 308.394531 103.742188 307.722656 102.566406 308.03125 101.421875 L 313.503906 81.226562 C 313.816406 80.085938 314.992188 79.410156 316.136719 79.71875 C 317.277344 80.027344 317.953125 81.207031 317.644531 82.351562 L 312.171875 102.542969 C 311.910156 103.5 311.046875 104.128906 310.101562 104.128906 Z M 310.101562 104.128906 " fill-opacity="1" fill-rule="nonzero"/></svg>