<svg xmlns="http://www.w3.org/2000/svg" xmlns:xlink="http://www.w3.org/1999/xlink" width="1000" zoomAndPan="magnify" viewBox="0 0 750 187.499995" height="250" preserveAspectRatio="xMidYMid meet" version="1.0"><defs><filter x="0%" y="0%" width="100%" height="100%" id="86d85afd69"><feColorMatrix values="0 0 0 0 1 0 0 0 0 1 0 0 0 0 1 0 0 0 1 0" color-interpolation-filters="sRGB"/></filter><g/><clipPath id="fcf9bd4998"><path d="M 0.996094 10.71875 L 749 10.71875 L 749 176.683594 L 0.996094 176.683594 Z M 0.996094 10.71875 " clip-rule="nonzero"/></clipPath><clipPath id="3bd6e521ea"><path d="M 9.972656 10.71875 L 740.027344 10.71875 C 742.40625 10.71875 744.691406 11.664062 746.375 13.347656 C 748.058594 15.03125 749.003906 17.3125 749.003906 19.695312 L 749.003906 167.308594 C 749.003906 169.6875 748.058594 171.96875 746.375 173.652344 C 744.691406 175.335938 742.40625 176.28125 740.027344 176.28125 L 9.972656 176.28125 C 5.015625 176.28125 0.996094 172.265625 0.996094 167.308594 L 0.996094 19.695312 C 0.996094 14.738281 5.015625 10.71875 9.972656 10.71875 " clip-rule="nonzero"/></clipPath><mask id="bc92f4695d"><g filter="url(#86d85afd69)"><rect x="-75" width="900" fill="#000000" y="-18.749999" height="224.999994" fill-opacity="0.2784"/></g></mask><clipPath id="062bbce4ef"><path d="M 26 20 L 168 20 L 168 173 L 26 173 Z M 26 20 " clip-rule="nonzero"/></clipPath><clipPath id="c6c10827ca"><path d="M 160.441406 -6.871094 L 193.902344 154.253906 L 33.511719 187.5625 L 0.0507812 26.4375 Z M 160.441406 -6.871094 " clip-rule="nonzero"/></clipPath><clipPath id="b18795e409"><path d="M 160.441406 -6.871094 L 193.902344 154.253906 L 33.511719 187.5625 L 0.0507812 26.4375 Z M 160.441406 -6.871094 " clip-rule="nonzero"/></clipPath><clipPath id="b62d862867"><path d="M 11 14 L 178 14 L 178 169 L 11 169 Z M 11 14 " clip-rule="nonzero"/></clipPath><clipPath id="6265bb0533"><path d="M 160.441406 -6.871094 L 193.902344 154.253906 L 33.511719 187.5625 L 0.0507812 26.4375 Z M 160.441406 -6.871094 " clip-rule="nonzero"/></clipPath><clipPath id="618d317f7e"><path d="M 160.441406 -6.871094 L 193.902344 154.253906 L 33.511719 187.5625 L 0.0507812 26.4375 Z M 160.441406 -6.871094 " clip-rule="nonzero"/></clipPath><clipPath id="01d06264b9"><rect x="0" width="194" y="0" height="187"/></clipPath><clipPath id="579082d1d9"><path d="M 200.199219 64.261719 L 255.550781 64.261719 L 255.550781 119.613281 L 200.199219 119.613281 Z M 200.199219 64.261719 " clip-rule="nonzero"/></clipPath></defs><g clip-path="url(#fcf9bd4998)"><g clip-path="url(#3bd6e521ea)"><path fill="#004aad" d="M 0.996094 10.71875 L 749.003906 10.71875 L 749.003906 176.097656 L 0.996094 176.097656 Z M 0.996094 10.71875 " fill-opacity="1" fill-rule="nonzero"/></g></g><g mask="url(#bc92f4695d)"><g transform="matrix(1, 0, 0, 1, 131, 0)"><g clip-path="url(#01d06264b9)"><g clip-path="url(#062bbce4ef)"><g clip-path="url(#c6c10827ca)"><g clip-path="url(#b18795e409)"><path fill="#0a85d6" d="M 167.476562 90.527344 L 167.179688 89.363281 C 165.476562 80.867188 160.789062 69.871094 153.113281 56.375 C 146.390625 45.355469 140.28125 37.628906 134.785156 33.1875 C 129.527344 28.890625 125.957031 26.410156 124.074219 25.742188 C 121.257812 24.34375 118.3125 23.246094 115.234375 22.445312 C 105.824219 20.257812 96.046875 19.78125 85.914062 21.015625 C 72.957031 22.253906 61.105469 24.707031 50.355469 28.367188 C 40.902344 32.40625 35.136719 36.148438 33.058594 39.59375 C 30.046875 42.175781 27.972656 48.683594 26.832031 59.121094 L 26.039062 90 C 26.242188 96.335938 26.800781 101.101562 27.722656 104.296875 C 30.949219 116.949219 39.902344 130.140625 54.578125 143.871094 L 74.753906 162.238281 C 79.496094 166.140625 82.402344 168.304688 83.476562 168.726562 C 88.644531 171.351562 91.839844 172.601562 93.058594 172.476562 C 95.527344 172.882812 97.648438 172.953125 99.414062 172.695312 C 104.367188 172.40625 110.480469 169.125 117.761719 162.859375 C 129.707031 151.605469 140.769531 139.800781 150.949219 127.449219 C 159.113281 117.785156 163.851562 111.167969 165.15625 107.589844 C 167.785156 102.140625 168.558594 96.453125 167.476562 90.527344 " fill-opacity="1" fill-rule="nonzero"/></g></g></g><g clip-path="url(#b62d862867)"><g clip-path="url(#6265bb0533)"><g clip-path="url(#618d317f7e)"><path fill="#23a8fe" d="M 169.425781 103.660156 C 169.445312 103.628906 175.234375 94.625 176.117188 89.550781 C 176.1875 89.148438 176.25 88.746094 176.304688 88.339844 C 177.480469 79.53125 175.050781 69.316406 169.074219 62.945312 C 164.867188 58.464844 158.125 56.898438 151.921875 55.589844 C 149.046875 54.980469 146.121094 54.476562 143.179688 53.972656 C 140.234375 53.464844 137.277344 52.957031 134.355469 52.339844 C 129.152344 51.242188 124.050781 49.804688 119.292969 47.421875 C 112.296875 43.917969 106.683594 38.128906 101.152344 32.433594 C 95.636719 26.761719 90.207031 21.175781 83.519531 17.824219 C 82.371094 17.25 81.1875 16.742188 79.960938 16.3125 C 70.375 12.9375 59.136719 18.0625 49.824219 22.765625 C 34.03125 30.734375 16.988281 44.007812 13.695312 61.167969 C 13.542969 61.953125 13.417969 62.738281 13.3125 63.53125 C 12.335938 70.847656 13.191406 78.421875 14.234375 85.800781 C 16.230469 99.894531 19.84375 113.796875 24.425781 127.285156 C 27.492188 136.308594 30.964844 145.257812 35.617188 153.546875 C 39.042969 159.652344 44.261719 166.691406 50.957031 167.152344 C 57.566406 167.609375 64.023438 163.738281 69.78125 160.078125 C 73.726562 157.574219 77.511719 154.824219 81.308594 152.066406 C 84.496094 149.75 87.699219 147.421875 90.996094 145.242188 C 100.5625 138.917969 111.191406 134.449219 121.757812 130.007812 C 125.480469 128.441406 129.191406 126.878906 132.859375 125.238281 C 141.15625 121.523438 149.433594 117.71875 157.195312 113.046875 C 161.617188 110.386719 169.5 103.574219 169.507812 103.566406 L 169.425781 103.660156 M 170.171875 104.140625 C 170.148438 104.175781 170.121094 104.207031 170.089844 104.234375 C 170.101562 104.226562 162.15625 111.09375 157.65625 113.804688 C 149.839844 118.507812 141.519531 122.332031 133.222656 126.046875 C 129.546875 127.691406 125.824219 129.257812 122.101562 130.824219 C 111.523438 135.269531 100.96875 139.710938 91.484375 145.980469 C 88.203125 148.148438 85.019531 150.460938 81.828125 152.78125 C 78.035156 155.539062 74.230469 158.304688 70.257812 160.828125 C 64.546875 164.453125 57.84375 168.515625 50.894531 168.035156 C 43.667969 167.539062 38.242188 160.035156 34.84375 153.980469 C 30.152344 145.625 26.660156 136.613281 23.585938 127.570312 C 18.988281 114.039062 15.363281 100.082031 13.355469 85.925781 C 12.3125 78.542969 11.4375 70.863281 12.433594 63.414062 C 12.539062 62.605469 12.667969 61.804688 12.824219 61.003906 C 16.203125 43.40625 33.59375 29.964844 49.425781 21.972656 C 58.65625 17.3125 70.25 11.953125 80.257812 15.476562 C 81.519531 15.921875 82.738281 16.445312 83.917969 17.035156 C 90.761719 20.464844 96.296875 26.164062 101.785156 31.816406 C 107.339844 37.535156 112.855469 43.203125 119.691406 46.628906 C 124.351562 48.964844 129.371094 50.382812 134.539062 51.472656 C 137.441406 52.085938 140.382812 52.589844 143.332031 53.097656 C 146.269531 53.605469 149.210938 54.109375 152.105469 54.722656 C 158.253906 56.019531 165.292969 57.625 169.71875 62.339844 C 175.917969 68.945312 178.386719 79.445312 177.183594 88.457031 C 177.128906 88.875 177.0625 89.289062 176.992188 89.703125 C 176.070312 94.996094 170.152344 104.171875 170.171875 104.140625 Z M 170.171875 104.140625 " fill-opacity="0.9608" fill-rule="nonzero"/></g></g></g></g></g></g><g fill="#ededed" fill-opacity="1"><g transform="translate(33.652456, 116.826735)"><g><path d="M 52.480469 0 L 31.828125 -50.371094 L 20.835938 -50.371094 L 0.183594 0 L 12.582031 0 L 15.839844 -8.179688 L 36.824219 -8.179688 L 40.082031 0 Z M 25.945312 -33.640625 L 26.277344 -35.195312 L 26.386719 -35.195312 L 26.722656 -33.640625 L 32.976562 -17.914062 L 19.6875 -17.914062 Z M 25.945312 -33.640625 "/></g></g></g><g fill="#ededed" fill-opacity="1"><g transform="translate(86.315948, 116.826735)"><g><path d="M 16.875 0 L 16.875 -31.273438 L 16.914062 -31.273438 L 40.96875 0 L 51.109375 0 L 51.109375 -50.332031 L 39.378906 -50.332031 L 39.378906 -19.097656 L 15.394531 -50.332031 L 5.144531 -50.332031 L 5.144531 0 Z M 16.875 0 "/></g></g></g><g fill="#ededed" fill-opacity="1"><g transform="translate(142.569287, 116.826735)"><g><path d="M 16.875 0 L 16.875 -31.273438 L 16.914062 -31.273438 L 40.96875 0 L 51.109375 0 L 51.109375 -50.332031 L 39.378906 -50.332031 L 39.378906 -19.097656 L 15.394531 -50.332031 L 5.144531 -50.332031 L 5.144531 0 Z M 16.875 0 "/></g></g></g><g fill="#ededed" fill-opacity="1"><g transform="translate(198.822625, 116.826735)"><g><path d="M 29.3125 1.148438 C 44.375 1.148438 56.660156 -10.621094 56.660156 -25.242188 C 56.660156 -39.894531 44.375 -51.589844 29.3125 -51.589844 C 14.175781 -51.589844 1.925781 -39.894531 1.925781 -25.242188 C 1.925781 -10.621094 14.175781 1.148438 29.3125 1.148438 Z M 29.3125 -9.585938 C 20.652344 -9.585938 13.65625 -16.136719 13.65625 -25.203125 C 13.65625 -34.308594 20.578125 -40.859375 29.3125 -40.859375 C 38.007812 -40.859375 44.964844 -34.308594 44.964844 -25.203125 C 44.964844 -16.136719 38.007812 -9.585938 29.3125 -9.585938 Z M 29.3125 -9.585938 "/></g></g></g><g fill="#ededed" fill-opacity="1"><g transform="translate(257.444525, 116.826735)"><g><path d="M 26.5 1.148438 C 39.859375 1.148438 48.59375 -7.476562 48.59375 -19.429688 L 48.59375 -50.332031 L 36.863281 -50.332031 L 36.863281 -20.28125 C 36.863281 -14.136719 33.125 -9.472656 26.5 -9.472656 C 19.726562 -9.472656 16.0625 -14.175781 16.0625 -20.28125 L 16.0625 -50.332031 L 4.367188 -50.332031 L 4.367188 -19.429688 C 4.367188 -6.734375 13.988281 1.148438 26.5 1.148438 Z M 26.5 1.148438 "/></g></g></g><g fill="#ededed" fill-opacity="1"><g transform="translate(310.404087, 116.826735)"><g><path d="M 16.875 0 L 16.875 -31.273438 L 16.914062 -31.273438 L 40.96875 0 L 51.109375 0 L 51.109375 -50.332031 L 39.378906 -50.332031 L 39.378906 -19.097656 L 15.394531 -50.332031 L 5.144531 -50.332031 L 5.144531 0 Z M 16.875 0 "/></g></g></g><g fill="#ededed" fill-opacity="1"><g transform="translate(366.657426, 116.826735)"><g><path d="M 28.832031 1.148438 C 39.527344 1.148438 51.589844 -5.179688 53.738281 -19.835938 L 41.746094 -19.835938 C 40.007812 -12.472656 34.714844 -9.585938 28.496094 -9.585938 C 20.355469 -9.585938 13.65625 -15.210938 13.65625 -25.203125 C 13.65625 -34.9375 20.355469 -40.859375 28.496094 -40.859375 C 34.75 -40.859375 40.007812 -37.933594 41.785156 -30.570312 L 53.738281 -30.570312 C 51.589844 -45.261719 39.414062 -51.589844 28.832031 -51.589844 C 13.914062 -51.589844 1.925781 -39.894531 1.925781 -25.242188 C 1.925781 -10.621094 13.914062 1.148438 28.832031 1.148438 Z M 28.832031 1.148438 "/></g></g></g><g fill="#ededed" fill-opacity="1"><g transform="translate(422.355649, 116.826735)"><g><path d="M 40.96875 0 L 40.96875 -10.4375 L 16.875 -10.4375 L 16.875 -20.652344 L 37.269531 -20.652344 L 37.269531 -30.421875 L 16.875 -30.421875 L 16.875 -39.933594 L 40.636719 -39.933594 L 40.636719 -50.332031 L 5.144531 -50.332031 L 5.144531 0 Z M 40.96875 0 "/></g></g></g><g fill="#ededed" fill-opacity="1"><g transform="translate(465.507892, 116.826735)"><g><path d="M 16.875 0 L 16.875 -31.753906 L 29.644531 -13.546875 L 32.605469 -13.546875 L 45.523438 -31.644531 L 45.523438 0 L 57.214844 0 L 57.214844 -50.332031 L 47.003906 -50.332031 L 31.125 -28.71875 L 31.125 -28.683594 L 15.46875 -50.332031 L 5.144531 -50.332031 L 5.144531 0 Z M 16.875 0 "/></g></g></g><g fill="#ededed" fill-opacity="1"><g transform="translate(527.867672, 116.826735)"><g><path d="M 40.96875 0 L 40.96875 -10.4375 L 16.875 -10.4375 L 16.875 -20.652344 L 37.269531 -20.652344 L 37.269531 -30.421875 L 16.875 -30.421875 L 16.875 -39.933594 L 40.636719 -39.933594 L 40.636719 -50.332031 L 5.144531 -50.332031 L 5.144531 0 Z M 40.96875 0 "/></g></g></g><g fill="#ededed" fill-opacity="1"><g transform="translate(571.019915, 116.826735)"><g><path d="M 16.875 0 L 16.875 -31.273438 L 16.914062 -31.273438 L 40.96875 0 L 51.109375 0 L 51.109375 -50.332031 L 39.378906 -50.332031 L 39.378906 -19.097656 L 15.394531 -50.332031 L 5.144531 -50.332031 L 5.144531 0 Z M 16.875 0 "/></g></g></g><g fill="#ededed" fill-opacity="1"><g transform="translate(627.273253, 116.826735)"><g><path d="M 27.128906 0 L 27.128906 -39.894531 L 41.191406 -39.894531 L 41.191406 -50.332031 L 1.371094 -50.332031 L 1.371094 -39.894531 L 15.46875 -39.894531 L 15.46875 0 Z M 27.128906 0 "/></g></g></g><g fill="#ededed" fill-opacity="1"><g transform="translate(669.833355, 116.826735)"><g><path d="M 23.425781 1.257812 C 35.898438 1.257812 44.449219 -4.21875 44.449219 -14.285156 C 44.449219 -24.09375 36.640625 -28.347656 26.535156 -30.386719 C 18.617188 -31.863281 15.285156 -33.457031 15.285156 -36.675781 C 15.285156 -38.972656 16.582031 -41.375 22.835938 -41.375 C 28.976562 -41.375 30.976562 -38.5625 30.976562 -35.75 L 42.707031 -35.75 C 42.707031 -45.375 36.160156 -51.589844 22.984375 -51.589844 C 9.957031 -51.589844 3.554688 -45.523438 3.554688 -36.75 C 3.554688 -26.089844 13.988281 -22.761719 22.464844 -20.726562 C 28.976562 -19.246094 32.566406 -17.800781 32.566406 -14.324219 C 32.566406 -10.511719 29.941406 -8.585938 23.390625 -8.585938 C 17.394531 -8.585938 14.027344 -11.398438 14.027344 -15.582031 L 2.292969 -15.582031 C 2.292969 -7.4375 7.992188 1.257812 23.425781 1.257812 Z M 23.425781 1.257812 "/></g></g></g><g clip-path="url(#579082d1d9)"><path fill="#ededed" d="M 227.875 119.613281 C 212.613281 119.613281 200.199219 107.195312 200.199219 91.9375 C 200.199219 76.675781 212.613281 64.261719 227.875 64.261719 C 243.136719 64.261719 255.550781 76.675781 255.550781 91.9375 C 255.550781 107.195312 243.136719 119.613281 227.875 119.613281 Z M 227.875 119.613281 " fill-opacity="1" fill-rule="nonzero"/></g><path fill="#0379c6" d="M 220.199219 99.277344 C 219.789062 99.277344 219.375 99.148438 219.023438 98.878906 L 212.054688 93.542969 C 211.582031 93.183594 211.300781 92.625 211.292969 92.03125 C 211.289062 91.4375 211.554688 90.871094 212.019531 90.5 L 218.84375 85.019531 C 219.679688 84.351562 220.898438 84.484375 221.566406 85.316406 C 222.234375 86.152344 222.101562 87.371094 221.269531 88.039062 L 216.367188 91.972656 L 221.375 95.808594 C 222.226562 96.457031 222.386719 97.671875 221.738281 98.519531 C 221.355469 99.019531 220.78125 99.277344 220.199219 99.277344 Z M 220.199219 99.277344 " fill-opacity="1" fill-rule="nonzero"/><path fill="#0379c6" d="M 235.550781 99.277344 C 234.96875 99.277344 234.394531 99.019531 234.011719 98.519531 C 233.363281 97.671875 233.523438 96.457031 234.375 95.808594 L 239.382812 91.972656 L 234.484375 88.039062 C 233.648438 87.367188 233.515625 86.152344 234.183594 85.316406 C 234.855469 84.484375 236.070312 84.351562 236.90625 85.019531 L 243.730469 90.5 C 244.195312 90.871094 244.460938 91.4375 244.457031 92.03125 C 244.449219 92.625 244.167969 93.183594 243.695312 93.542969 L 236.726562 98.878906 C 236.375 99.148438 235.960938 99.277344 235.550781 99.277344 Z M 235.550781 99.277344 " fill-opacity="1" fill-rule="nonzero"/><path fill="#0379c6" d="M 224.730469 102.984375 C 224.5625 102.984375 224.390625 102.960938 224.222656 102.914062 C 223.191406 102.636719 222.582031 101.574219 222.859375 100.542969 L 227.800781 82.316406 C 228.078125 81.285156 229.140625 80.675781 230.175781 80.957031 C 231.207031 81.234375 231.816406 82.300781 231.535156 83.332031 L 226.59375 101.554688 C 226.363281 102.414062 225.582031 102.984375 224.730469 102.984375 Z M 224.730469 102.984375 " fill-opacity="1" fill-rule="nonzero"/></svg>