<svg xmlns="http://www.w3.org/2000/svg" xmlns:xlink="http://www.w3.org/1999/xlink" width="1000" zoomAndPan="magnify" viewBox="0 0 750 187.499995" height="250" preserveAspectRatio="xMidYMid meet" version="1.0"><defs><filter x="0%" y="0%" width="100%" height="100%" id="baa255d8e9"><feColorMatrix values="0 0 0 0 1 0 0 0 0 1 0 0 0 0 1 0 0 0 1 0" color-interpolation-filters="sRGB"/></filter><g/><clipPath id="ad954b23d7"><path d="M 0.996094 10.71875 L 749 10.71875 L 749 176.683594 L 0.996094 176.683594 Z M 0.996094 10.71875 " clip-rule="nonzero"/></clipPath><clipPath id="0bed871c6a"><path d="M 9.972656 10.71875 L 740.027344 10.71875 C 742.40625 10.71875 744.691406 11.664062 746.375 13.347656 C 748.058594 15.03125 749.003906 17.3125 749.003906 19.695312 L 749.003906 167.308594 C 749.003906 169.6875 748.058594 171.96875 746.375 173.652344 C 744.691406 175.335938 742.40625 176.28125 740.027344 176.28125 L 9.972656 176.28125 C 5.015625 176.28125 0.996094 172.265625 0.996094 167.308594 L 0.996094 19.695312 C 0.996094 14.738281 5.015625 10.71875 9.972656 10.71875 " clip-rule="nonzero"/></clipPath><mask id="dcd4251e0e"><g filter="url(#baa255d8e9)"><rect x="-75" width="900" fill="#000000" y="-18.749999" height="224.999994" fill-opacity="0.2784"/></g></mask><clipPath id="bf6a49b64d"><path d="M 25 19 L 168 19 L 168 172 L 25 172 Z M 25 19 " clip-rule="nonzero"/></clipPath><clipPath id="56c2ea953d"><path d="M 160.25 -7.757812 L 193.710938 153.367188 L 33.320312 186.675781 L -0.140625 25.550781 Z M 160.25 -7.757812 " clip-rule="nonzero"/></clipPath><clipPath id="c53632f8ee"><path d="M 160.25 -7.757812 L 193.710938 153.367188 L 33.320312 186.675781 L -0.140625 25.550781 Z M 160.25 -7.757812 " clip-rule="nonzero"/></clipPath><clipPath id="48ced0aff2"><path d="M 11 13 L 178 13 L 178 168 L 11 168 Z M 11 13 " clip-rule="nonzero"/></clipPath><clipPath id="f3d5af3549"><path d="M 160.25 -7.757812 L 193.710938 153.367188 L 33.320312 186.675781 L -0.140625 25.550781 Z M 160.25 -7.757812 " clip-rule="nonzero"/></clipPath><clipPath id="dcec149975"><path d="M 160.25 -7.757812 L 193.710938 153.367188 L 33.320312 186.675781 L -0.140625 25.550781 Z M 160.25 -7.757812 " clip-rule="nonzero"/></clipPath><clipPath id="3bc0ace8cd"><rect x="0" width="193" y="0" height="187"/></clipPath><clipPath id="59d85814cf"><path d="M 285.164062 64.410156 L 346.5 64.410156 L 346.5 125.746094 L 285.164062 125.746094 Z M 285.164062 64.410156 " clip-rule="nonzero"/></clipPath></defs><g clip-path="url(#ad954b23d7)"><g clip-path="url(#0bed871c6a)"><path fill="#004aad" d="M 0.996094 10.71875 L 749.003906 10.71875 L 749.003906 176.097656 L 0.996094 176.097656 Z M 0.996094 10.71875 " fill-opacity="1" fill-rule="nonzero"/></g></g><g mask="url(#dcd4251e0e)"><g transform="matrix(1, 0, 0, 1, 219, 0)"><g clip-path="url(#3bc0ace8cd)"><g clip-path="url(#bf6a49b64d)"><g clip-path="url(#56c2ea953d)"><g clip-path="url(#c53632f8ee)"><path fill="#0a85d6" d="M 167.285156 89.640625 L 166.988281 88.476562 C 165.285156 79.980469 160.59375 68.988281 152.921875 55.488281 C 146.199219 44.472656 140.089844 36.742188 134.59375 32.300781 C 129.332031 28.003906 125.761719 25.523438 123.878906 24.855469 C 121.066406 23.457031 118.121094 22.359375 115.042969 21.558594 C 105.628906 19.375 95.855469 18.898438 85.722656 20.128906 C 72.765625 21.367188 60.914062 23.820312 50.164062 27.480469 C 40.710938 31.519531 34.945312 35.261719 32.863281 38.707031 C 29.855469 41.289062 27.78125 47.796875 26.640625 58.234375 L 25.84375 89.113281 C 26.046875 95.449219 26.609375 100.214844 27.53125 103.410156 C 30.757812 116.0625 39.707031 129.253906 54.382812 142.984375 L 74.558594 161.351562 C 79.300781 165.253906 82.210938 167.417969 83.285156 167.839844 C 88.453125 170.464844 91.648438 171.714844 92.867188 171.589844 C 95.335938 171.996094 97.453125 172.066406 99.222656 171.808594 C 104.171875 171.519531 110.289062 168.242188 117.566406 161.976562 C 129.515625 150.71875 140.578125 138.914062 150.753906 126.5625 C 158.921875 116.898438 163.65625 110.28125 164.960938 106.703125 C 167.59375 101.253906 168.367188 95.566406 167.285156 89.640625 " fill-opacity="1" fill-rule="nonzero"/></g></g></g><g clip-path="url(#48ced0aff2)"><g clip-path="url(#f3d5af3549)"><g clip-path="url(#dcec149975)"><path fill="#23a8fe" d="M 169.234375 102.773438 C 169.253906 102.742188 175.042969 93.738281 175.925781 88.664062 C 175.996094 88.261719 176.058594 87.859375 176.113281 87.453125 C 177.289062 78.644531 174.855469 68.429688 168.878906 62.058594 C 164.675781 57.578125 157.929688 56.011719 151.730469 54.703125 C 148.851562 54.097656 145.925781 53.59375 142.988281 53.085938 C 140.042969 52.578125 137.082031 52.070312 134.160156 51.453125 C 128.960938 50.355469 123.855469 48.917969 119.101562 46.535156 C 112.105469 43.03125 106.492188 37.242188 100.957031 31.550781 C 95.445312 25.875 90.011719 20.289062 83.324219 16.941406 C 82.179688 16.363281 80.996094 15.855469 79.769531 15.425781 C 70.179688 12.050781 58.941406 17.175781 49.628906 21.878906 C 33.839844 29.847656 16.796875 43.121094 13.5 60.28125 C 13.351562 61.066406 13.222656 61.855469 13.117188 62.644531 C 12.140625 69.960938 12.996094 77.535156 14.042969 84.914062 C 16.039062 99.007812 19.648438 112.910156 24.234375 126.398438 C 27.300781 135.421875 30.773438 144.375 35.425781 152.660156 C 38.851562 158.765625 44.070312 165.804688 50.761719 166.265625 C 57.371094 166.722656 63.828125 162.851562 69.589844 159.191406 C 73.535156 156.6875 77.316406 153.9375 81.113281 151.179688 C 84.304688 148.863281 87.503906 146.535156 90.800781 144.355469 C 100.367188 138.03125 111 133.5625 121.5625 129.121094 C 125.289062 127.554688 129 125.992188 132.667969 124.351562 C 140.964844 120.636719 149.242188 116.832031 157.003906 112.160156 C 161.425781 109.5 169.304688 102.6875 169.316406 102.679688 L 169.234375 102.773438 M 169.980469 103.253906 C 169.957031 103.289062 169.929688 103.320312 169.894531 103.347656 C 169.90625 103.339844 161.960938 110.210938 157.460938 112.917969 C 149.648438 117.621094 141.328125 121.445312 133.027344 125.160156 C 129.351562 126.804688 125.628906 128.371094 121.90625 129.9375 C 111.328125 134.386719 100.777344 138.824219 91.289062 145.09375 C 88.011719 147.261719 84.828125 149.574219 81.636719 151.894531 C 77.839844 154.652344 74.039062 157.417969 70.066406 159.941406 C 64.351562 163.566406 57.648438 167.628906 50.699219 167.148438 C 43.472656 166.652344 38.046875 159.148438 34.652344 153.09375 C 29.960938 144.738281 26.46875 135.730469 23.394531 126.683594 C 18.796875 113.15625 15.167969 99.199219 13.164062 85.039062 C 12.117188 77.65625 11.246094 69.976562 12.238281 62.527344 C 12.347656 61.71875 12.476562 60.917969 12.628906 60.117188 C 16.007812 42.519531 33.402344 29.078125 49.230469 21.085938 C 58.464844 16.425781 70.058594 11.066406 80.0625 14.589844 C 81.328125 15.035156 82.546875 15.558594 83.722656 16.148438 C 90.570312 19.578125 96.101562 25.28125 101.59375 30.933594 C 107.148438 36.648438 112.660156 42.316406 119.5 45.742188 C 124.15625 48.078125 129.179688 49.496094 134.34375 50.585938 C 137.25 51.199219 140.191406 51.703125 143.140625 52.210938 C 146.074219 52.71875 149.015625 53.226562 151.914062 53.835938 C 158.058594 55.132812 165.101562 56.738281 169.527344 61.453125 C 175.722656 68.058594 178.191406 78.558594 176.992188 87.570312 C 176.933594 87.988281 176.871094 88.402344 176.800781 88.816406 C 175.878906 94.109375 169.960938 103.285156 169.980469 103.253906 Z M 169.980469 103.253906 " fill-opacity="0.9608" fill-rule="nonzero"/></g></g></g></g></g></g><g fill="#ededed" fill-opacity="1"><g transform="translate(133.842298, 122.112796)"><g><path d="M 18.429688 0 L 18.429688 -18.390625 L 26.59375 -18.390625 L 36.214844 0 L 50.886719 0 L 39.164062 -20.410156 C 45.507812 -23.117188 49.59375 -28.980469 49.59375 -36.457031 C 49.59375 -47.449219 41.347656 -54.96875 29.746094 -54.96875 L 5.617188 -54.96875 L 5.617188 0 Z M 18.429688 -43.570312 L 29.222656 -43.570312 C 33.425781 -43.570312 36.78125 -40.296875 36.78125 -36.457031 C 36.78125 -32.171875 33.464844 -29.101562 29.222656 -29.101562 L 18.429688 -29.101562 Z M 18.429688 -43.570312 "/></g></g></g><g fill="#ededed" fill-opacity="1"><g transform="translate(185.736123, 122.112796)"><g><path d="M 44.742188 0 L 44.742188 -11.398438 L 18.429688 -11.398438 L 18.429688 -22.554688 L 40.699219 -22.554688 L 40.699219 -33.222656 L 18.429688 -33.222656 L 18.429688 -43.609375 L 44.378906 -43.609375 L 44.378906 -54.96875 L 5.617188 -54.96875 L 5.617188 0 Z M 44.742188 0 "/></g></g></g><g fill="#ededed" fill-opacity="1"><g transform="translate(232.860888, 122.112796)"><g><path d="M 25.585938 1.375 C 39.203125 1.375 48.539062 -4.609375 48.539062 -15.601562 C 48.539062 -26.3125 40.011719 -30.960938 28.980469 -33.183594 C 20.328125 -34.800781 16.691406 -36.535156 16.691406 -40.054688 C 16.691406 -42.558594 18.105469 -45.1875 24.9375 -45.1875 C 31.648438 -45.1875 33.828125 -42.113281 33.828125 -39.042969 L 46.640625 -39.042969 C 46.640625 -49.550781 39.488281 -56.339844 25.097656 -56.339844 C 10.871094 -56.339844 3.878906 -49.714844 3.878906 -40.132812 C 3.878906 -28.492188 15.277344 -24.855469 24.53125 -22.632812 C 31.648438 -21.015625 35.566406 -19.441406 35.566406 -15.640625 C 35.566406 -11.476562 32.699219 -9.375 25.542969 -9.375 C 18.996094 -9.375 15.316406 -12.449219 15.316406 -17.015625 L 2.507812 -17.015625 C 2.507812 -8.125 8.730469 1.375 25.585938 1.375 Z M 25.585938 1.375 "/></g></g></g><g fill="#ededed" fill-opacity="1"><g transform="translate(283.663488, 122.112796)"><g><path d="M 32.011719 1.253906 C 48.460938 1.253906 61.878906 -11.601562 61.878906 -27.566406 C 61.878906 -43.570312 48.460938 -56.339844 32.011719 -56.339844 C 15.480469 -56.339844 2.101562 -43.570312 2.101562 -27.566406 C 2.101562 -11.601562 15.480469 1.253906 32.011719 1.253906 Z M 32.011719 -10.46875 C 22.554688 -10.46875 14.914062 -17.621094 14.914062 -27.523438 C 14.914062 -37.464844 22.472656 -44.621094 32.011719 -44.621094 C 41.507812 -44.621094 49.105469 -37.464844 49.105469 -27.523438 C 49.105469 -17.621094 41.507812 -10.46875 32.011719 -10.46875 Z M 32.011719 -10.46875 "/></g></g></g><g fill="#ededed" fill-opacity="1"><g transform="translate(347.682049, 122.112796)"><g><path d="M 28.9375 1.253906 C 43.527344 1.253906 53.066406 -8.164062 53.066406 -21.21875 L 53.066406 -54.96875 L 40.253906 -54.96875 L 40.253906 -22.148438 C 40.253906 -15.4375 36.171875 -10.347656 28.9375 -10.347656 C 21.542969 -10.347656 17.542969 -15.480469 17.542969 -22.148438 L 17.542969 -54.96875 L 4.769531 -54.96875 L 4.769531 -21.21875 C 4.769531 -7.355469 15.277344 1.253906 28.9375 1.253906 Z M 28.9375 1.253906 "/></g></g></g><g fill="#ededed" fill-opacity="1"><g transform="translate(405.517, 122.112796)"><g><path d="M 18.429688 0 L 18.429688 -18.390625 L 26.59375 -18.390625 L 36.214844 0 L 50.886719 0 L 39.164062 -20.410156 C 45.507812 -23.117188 49.59375 -28.980469 49.59375 -36.457031 C 49.59375 -47.449219 41.347656 -54.96875 29.746094 -54.96875 L 5.617188 -54.96875 L 5.617188 0 Z M 18.429688 -43.570312 L 29.222656 -43.570312 C 33.425781 -43.570312 36.78125 -40.296875 36.78125 -36.457031 C 36.78125 -32.171875 33.464844 -29.101562 29.222656 -29.101562 L 18.429688 -29.101562 Z M 18.429688 -43.570312 "/></g></g></g><g fill="#ededed" fill-opacity="1"><g transform="translate(457.410824, 122.112796)"><g><path d="M 31.484375 1.253906 C 43.164062 1.253906 56.339844 -5.660156 58.6875 -21.664062 L 45.589844 -21.664062 C 43.691406 -13.621094 37.910156 -10.46875 31.121094 -10.46875 C 22.230469 -10.46875 14.914062 -16.613281 14.914062 -27.523438 C 14.914062 -38.152344 22.230469 -44.621094 31.121094 -44.621094 C 37.953125 -44.621094 43.691406 -41.425781 45.632812 -33.382812 L 58.6875 -33.382812 C 56.339844 -49.429688 43.042969 -56.339844 31.484375 -56.339844 C 15.195312 -56.339844 2.101562 -43.570312 2.101562 -27.566406 C 2.101562 -11.601562 15.195312 1.253906 31.484375 1.253906 Z M 31.484375 1.253906 "/></g></g></g><g fill="#ededed" fill-opacity="1"><g transform="translate(518.236518, 122.112796)"><g><path d="M 44.742188 0 L 44.742188 -11.398438 L 18.429688 -11.398438 L 18.429688 -22.554688 L 40.699219 -22.554688 L 40.699219 -33.222656 L 18.429688 -33.222656 L 18.429688 -43.609375 L 44.378906 -43.609375 L 44.378906 -54.96875 L 5.617188 -54.96875 L 5.617188 0 Z M 44.742188 0 "/></g></g></g><g fill="#ededed" fill-opacity="1"><g transform="translate(565.36126, 122.112796)"><g><path d="M 25.585938 1.375 C 39.203125 1.375 48.539062 -4.609375 48.539062 -15.601562 C 48.539062 -26.3125 40.011719 -30.960938 28.980469 -33.183594 C 20.328125 -34.800781 16.691406 -36.535156 16.691406 -40.054688 C 16.691406 -42.558594 18.105469 -45.1875 24.9375 -45.1875 C 31.648438 -45.1875 33.828125 -42.113281 33.828125 -39.042969 L 46.640625 -39.042969 C 46.640625 -49.550781 39.488281 -56.339844 25.097656 -56.339844 C 10.871094 -56.339844 3.878906 -49.714844 3.878906 -40.132812 C 3.878906 -28.492188 15.277344 -24.855469 24.53125 -22.632812 C 31.648438 -21.015625 35.566406 -19.441406 35.566406 -15.640625 C 35.566406 -11.476562 32.699219 -9.375 25.542969 -9.375 C 18.996094 -9.375 15.316406 -12.449219 15.316406 -17.015625 L 2.507812 -17.015625 C 2.507812 -8.125 8.730469 1.375 25.585938 1.375 Z M 25.585938 1.375 "/></g></g></g><g clip-path="url(#59d85814cf)"><path fill="#ededed" d="M 315.832031 125.746094 C 298.921875 125.746094 285.164062 111.988281 285.164062 95.078125 C 285.164062 78.167969 298.921875 64.410156 315.832031 64.410156 C 332.742188 64.410156 346.5 78.167969 346.5 95.078125 C 346.5 111.988281 332.742188 125.746094 315.832031 125.746094 Z M 315.832031 125.746094 " fill-opacity="1" fill-rule="nonzero"/></g><path fill="#0379c6" d="M 307.324219 103.214844 C 306.871094 103.214844 306.414062 103.070312 306.023438 102.773438 L 298.300781 96.859375 C 297.777344 96.460938 297.464844 95.839844 297.457031 95.183594 C 297.449219 94.523438 297.746094 93.898438 298.261719 93.484375 L 305.828125 87.414062 C 306.75 86.671875 308.101562 86.820312 308.839844 87.746094 C 309.582031 88.667969 309.433594 90.019531 308.511719 90.757812 L 303.078125 95.117188 L 308.632812 99.367188 C 309.570312 100.085938 309.75 101.433594 309.03125 102.375 C 308.609375 102.925781 307.96875 103.214844 307.324219 103.214844 Z M 307.324219 103.214844 " fill-opacity="1" fill-rule="nonzero"/><path fill="#0379c6" d="M 324.339844 103.214844 C 323.695312 103.214844 323.054688 102.925781 322.632812 102.375 C 321.914062 101.433594 322.09375 100.085938 323.03125 99.367188 L 328.585938 95.117188 L 323.152344 90.757812 C 322.230469 90.015625 322.082031 88.667969 322.824219 87.746094 C 323.566406 86.820312 324.914062 86.671875 325.835938 87.414062 L 333.402344 93.484375 C 333.917969 93.898438 334.214844 94.523438 334.207031 95.183594 C 334.199219 95.839844 333.886719 96.460938 333.363281 96.859375 L 325.640625 102.773438 C 325.25 103.070312 324.792969 103.214844 324.339844 103.214844 Z M 324.339844 103.214844 " fill-opacity="1" fill-rule="nonzero"/><path fill="#0379c6" d="M 312.347656 107.320312 C 312.160156 107.320312 311.972656 107.296875 311.78125 107.246094 C 310.640625 106.933594 309.964844 105.757812 310.273438 104.613281 L 315.75 84.421875 C 316.058594 83.277344 317.238281 82.601562 318.378906 82.910156 C 319.523438 83.222656 320.199219 84.398438 319.886719 85.542969 L 314.414062 105.734375 C 314.15625 106.691406 313.289062 107.320312 312.347656 107.320312 Z M 312.347656 107.320312 " fill-opacity="1" fill-rule="nonzero"/></svg>